<svg width="250" height="220" viewBox="0 0 250 220" fill="none" xmlns="http://www.w3.org/2000/svg">
<path d="M108.351 15.1252C89.8201 10.4731 128.489 26.0958 159.74 34.0126C190.573 39.5644 197.775 60.7374 186.129 68.8821C186.129 69.4194 186.625 68.3802 186.129 68.8821C181.586 76.6999 166.2 78.6787 122.813 84.1478C99.7648 87.0532 75.3537 86.1749 58.7801 86.559C45.0995 89.264 28.9681 93.7794 33.3512 97.9403C40.3789 104.612 82.9095 105.654 121.192 107.902C127.627 107.729 133.825 107.571 139.525 107.571C152.879 107.571 172.821 109.797 191.77 112.96C217.673 115.739 235.888 119.716 241.675 126.998C241.578 126.593 242.129 127.429 241.675 126.998C242.819 128.368 242.606 131.818 241.675 132.81C237.412 142.244 194.94 144.96 144.475 147.834C142.086 148.331 139.699 148.855 137.32 149.408C95.5453 159.109 49.3784 156.884 26.3966 158.962C21.3285 160.221 12.9506 163.131 10.652 164.774C9.39864 174.756 94.5856 183.662 115.497 185.007C130.743 185.007 196.934 185.386 220.176 192.486C226.266 193.363 230.036 195.025 228.88 198.333C232.032 216.207 16.4148 202.476 9.65905 210.585C9.84427 210.159 9.92966 209.755 10.6362 209.374C23.0693 202.662 116.446 205.035 130.738 205.035C145.842 205.035 198.479 209.373 228.88 198.333C229.554 196.404 226.499 194.417 220.176 192.486C209.661 190.971 195.975 190.515 192.483 190.515C187.641 190.515 -15.4703 183.436 10.652 164.774C9.7635 162.374 18.5938 159.667 26.3966 158.962C50.6878 152.926 96.0423 150.592 144.475 147.834C191.194 138.111 235.553 139.33 241.675 132.81C242.167 131.719 242.349 128.253 241.675 126.998C241.444 126.57 241.999 127.407 241.675 126.998C236.991 122.558 216.36 117.064 191.77 112.96C170.197 110.646 144.877 109.294 121.192 107.902C91.0881 108.711 47.2659 111.15 33.3512 97.9403C24.8911 89.909 42.1462 86.9449 58.7801 86.559C95.7026 79.2585 177.457 77.6541 186.129 68.8821C185.916 69.4183 186.421 68.3791 186.129 68.8821C188.723 63.5713 187.016 40.6645 159.74 34.0126C143.473 31.0836 119.734 17.9828 108.351 15.1252Z" fill="white"/>
<path d="M116.102 42.6504C113.956 36.8182 113.291 33.2499 112.586 26.6051C112.355 25.207 112.326 24.5216 111.561 23.5695C109.969 22.3072 108.046 19.6664 107.753 18.9439C107.46 18.2214 106.782 17.7872 106.434 17.4983C106.087 17.2095 104.969 15.9085 104.091 15.7637C103.212 15.6189 102.919 14.7519 102.919 14.4627C102.919 14.1736 107.753 14.4627 107.753 14.4627L109.071 14.7519C108.999 14.4469 108.878 14.2751 108.632 13.8845C108.385 13.494 106.288 11.8605 105.995 11.5717C105.702 11.2829 106.141 10.8491 106.581 10.9935C107.02 11.1379 108.925 12.2945 109.803 13.3063C110.682 14.3182 111.708 15.1858 112.001 16.1974C112.294 17.209 113.374 19.4591 114.344 21.1122C114.811 21.8753 115.053 22.3348 115.37 23.2804L116.102 26.1715C116.696 28.0161 117.048 29.0742 117.86 31.0863C120.841 37.1603 121.862 40.35 122.987 45.108C123.186 45.7061 123.343 46.0534 123.719 46.6979C125.184 49.2064 125.916 53.9259 127.088 55.66C128.26 57.3944 128.846 57.8286 130.75 60.2859C132.654 62.7428 134.412 67.6581 134.412 68.0915C134.412 68.5252 137.049 69.682 137.634 69.8262C138.22 69.9706 139.099 70.2596 139.685 69.8262C140.271 69.3928 141.736 68.381 141.736 67.6581C141.736 66.935 141.59 66.5019 142.029 65.9235C142.468 65.3448 139.978 62.3092 139.978 61.5869C139.978 60.8643 140.357 60.3473 141.443 59.9967C141.75 59.7853 142.175 59.8525 142.029 59.2741C141.883 58.6954 142.143 58.3917 143.054 58.1175C143.29 57.475 143.535 57.3686 144.08 57.3947C144.319 57.2415 144.463 57.1069 144.373 56.8166C144.286 56.1866 144.373 55.3714 144.958 55.3711C145.545 55.3708 147.595 56.2382 148.034 56.6721C148.474 57.106 148.767 56.9613 149.353 56.6721C149.939 56.3826 151.781 56.7801 152.283 57.1058C152.785 57.4314 153.894 57.395 154.187 57.1058C154.48 56.8163 154.919 56.5271 155.651 56.8166C156.384 57.106 156.479 56.583 156.823 56.8166C158.551 56.8752 158.434 57.5392 158.434 58.262C158.434 58.9851 159.753 60.7193 159.606 61.7313C159.46 62.7434 160.046 61.8761 160.192 63.0323C160.339 64.1886 160.778 65.7785 160.192 66.7908C159.606 67.8029 160.778 70.4048 159.753 70.9827C158.728 71.5605 159.606 72.8615 158.874 73.151C158.142 73.4405 156.091 73.8741 155.944 74.452C155.798 75.0298 155.651 76.3308 154.919 76.0419C154.187 75.7533 151.88 76.0419 151.696 75.3193C151.513 74.5965 150.085 75.6085 149.939 76.0419C149.792 76.4753 150.214 77.2376 151.404 78.3549C156.327 78.8196 157.995 80.523 159.9 82.1132C161.804 83.7036 162.389 85.2935 164.147 86.7387C165.905 88.1842 169.274 89.9194 170.593 90.7864C171.911 91.6535 173.229 92.2316 174.401 92.5211C175.573 92.8103 178.942 93.6776 183.336 95.8456C187.731 98.0137 193.59 100.327 195.054 100.616C196.519 100.905 197.588 101.22 198.57 101.917C199.552 102.614 200.621 103.507 201.793 103.94C202.964 104.374 202.671 104.086 203.55 104.953C204.429 105.82 205.748 106.976 206.041 107.41C206.333 107.843 207.505 110.445 207.505 110.879C207.505 111.313 207.173 111.264 206.773 111.168C206.804 111.672 206.432 111.679 206.041 111.746C205.799 113.128 205.894 113.337 205.454 113.337C205.015 113.337 204.869 112.614 204.869 111.746C204.869 110.879 203.758 109.425 202.818 109C202.778 109.493 202.671 110.156 202.086 110.012C201.499 109.868 200.767 108.422 199.449 107.843C198.131 107.265 196.959 106.398 196.519 105.386C196.08 104.374 195.317 103.804 193.736 103.507C190.021 103.408 188.17 103.156 186.559 102.929C184.948 102.701 177.623 99.8931 176.159 99.8931C174.694 99.8931 174.254 99.8931 171.911 98.3032C169.567 96.713 165.905 96.1351 163.854 95.2675C161.804 94.3999 160.838 93.8278 159.46 92.81C156.901 90.7955 154.04 89.1965 153.308 88.907C152.575 88.6178 152.136 88.444 151.404 88.907C150.671 89.37 149.353 90.642 147.888 92.0874C146.423 93.5326 145.984 93.9668 144.373 97.0022C142.761 100.038 142.773 101.93 143.787 102.929C151.181 107.35 153.119 110.671 152.868 118.107C154.256 119.627 155.189 120.853 156.238 122.443C157.286 124.034 158.874 124.756 159.46 125.334C160.046 125.913 161.804 125.913 164.44 125.623C167.077 125.334 168.688 125.334 171.178 125.913C173.668 126.491 174.84 126.925 178.502 128.225C182.164 129.526 187.048 131.261 188.756 131.55C190.464 131.839 190.66 131.695 191.246 131.55C191.832 131.405 192.564 131.261 193.59 130.827C194.615 130.394 194.615 130.249 195.348 130.249C196.08 130.249 196.666 131.55 197.252 131.55C197.838 131.55 202.333 132.093 204.283 134.152C204.626 134.152 204.869 134.007 205.162 134.152C205.454 134.297 205.162 134.586 205.601 134.586C206.041 134.586 206.48 134.874 206.626 135.019C206.773 135.164 206.781 135.548 206.626 135.886C206.939 136.063 207.066 136.32 207.066 136.609C207.066 136.899 207.212 136.754 206.187 137.621C205.162 138.488 204.869 137.766 203.404 138.2C201.939 138.633 202.525 138.2 200.621 138.2C198.716 138.199 196.519 137.621 195.787 137.477C195.054 137.332 194.322 137.477 193.443 137.332C192.565 137.187 191.1 137.043 188.17 135.742C185.24 134.441 182.923 134.296 180.114 134.152C177.304 134.008 173.52 134.062 169.86 133.14C167.829 132.678 166.344 132.996 165.026 132.851C163.708 132.706 161.036 133.196 156.238 134.152C156.119 136.051 156.677 141.091 157.263 142.103C157.849 143.114 158.434 144.126 158.874 145.427C159.313 146.728 159.021 147.451 159.46 148.607C159.899 149.763 160.632 151.643 161.218 152.944C161.804 154.245 162.536 162.485 162.536 165.52C162.536 168.555 162.976 171.88 163.122 174.627C163.268 177.373 163.415 180.12 163.708 180.842C164.001 181.565 164.587 182.432 164.587 183.155C164.587 183.878 164.294 184.746 164.587 185.323C164.88 185.901 165.234 186.18 165.466 187.058C165.755 187.96 165.759 188.648 166.344 189.516C166.93 190.383 166.638 190.094 167.223 191.25C167.809 192.406 169.429 193.852 169.86 194.141C170.291 194.43 170.529 194.595 170.739 195.009C170.937 195.456 171.178 195.731 171.325 196.02C171.471 196.31 171.471 196.31 171.325 196.454C171.178 196.598 170.885 196.743 170.885 196.888C170.885 197.032 170.136 197.083 169.421 197.032C169.193 197.252 169.274 197.151 168.542 197.321C167.809 197.492 163.561 197.177 163.122 196.743C162.683 196.309 162.389 193.997 161.95 192.551C161.511 191.105 160.632 189.082 160.485 188.793C160.339 188.504 160.398 188.255 159.9 187.925C158.837 187.247 158.288 186.769 158.142 186.191C157.995 185.613 158.142 184.746 158.434 184.312C158.728 183.878 158.874 183.444 158.874 182.721C158.874 181.999 159.021 182.288 159.021 181.565C159.021 180.842 158.887 178.963 158.728 177.951C158.568 176.939 158.581 176.362 157.849 173.904C157.116 171.446 154.919 165.809 154.626 164.363C154.333 162.918 153.308 160.605 153.161 158.87C153.015 157.136 153.015 152.654 152.722 151.498C152.429 150.342 151.111 149.041 150.671 147.74C150.232 146.439 150.085 144.993 149.353 143.982C148.621 142.97 147.595 140.657 147.449 139.356C147.302 138.055 147.009 136.898 146.13 135.742C145.251 134.586 142.615 128.081 142.029 127.069C141.443 126.057 139.246 125.19 137.781 123.6C136.316 122.009 136.135 122.115 135.437 121.287L133.679 119.552C132.31 118.232 132.654 118.106 132.068 117.095C131.482 116.083 128.751 112.763 127.674 110.156C127.294 109.718 127.234 109.144 126.941 108.855C126.649 108.567 126.801 107.714 126.941 107.265C126.223 105.198 126.063 103.796 125.477 101.772C124.891 99.7489 124.598 97.5806 124.158 95.2675C123.719 92.9545 124.029 88.5666 124.158 87.606C124.288 86.6458 123.839 85.8034 124.158 84.7152C124.25 82.5194 124.744 81.39 125.33 79.6559C125.916 77.9216 125.33 71.2719 125.33 71.2719C125.064 68.4509 124.685 67.3347 123.719 65.9235C121.239 61.5087 120.79 58.6954 120.057 54.9375C119.325 51.1792 118.299 48.8659 117.274 46.1197C116.558 45.4514 116.395 44.0956 116.102 42.6504Z" fill="white"/>
<path fill-rule="evenodd" clip-rule="evenodd" d="M87.3623 192.89C87.7065 192.314 88.0212 191.787 88.2801 191.48C88.3196 191.433 88.3573 191.389 88.3937 191.346C89.0171 190.609 89.1679 190.431 89.5762 189.49C89.9379 188.658 90.501 188.124 91.0126 187.639C91.1126 187.544 91.2104 187.451 91.3046 187.359C91.8807 186.79 92.1687 186.08 92.3126 185.369C92.3615 185.128 92.4929 184.757 92.6512 184.31C92.9596 183.439 93.3696 182.281 93.4648 181.247C93.5048 180.813 93.5226 180.379 93.5398 179.96C93.5843 178.87 93.6248 177.884 94.041 177.268C94.4107 176.72 94.4837 176.231 94.5648 175.688C94.6101 175.385 94.6579 175.066 94.761 174.71C95.049 173.715 95.049 173.288 95.049 172.578C95.049 171.867 97.9296 164.619 97.9296 164.619C98.4221 163.214 98.8965 161.609 99.3187 160.18C99.9987 157.879 100.543 156.036 100.81 156.234C101.242 156.553 103.258 157.086 104.41 156.802C105.157 156.618 105.722 155.897 106.223 155.257C106.495 154.91 106.749 154.586 107.003 154.386C107.723 153.818 108.439 151.658 108.731 149.838C109.094 147.885 109.584 146.362 110.064 144.868C110.535 143.402 110.997 141.964 111.323 140.174C114.488 136.446 116.796 132.925 118.38 129.23C119.964 125.535 120.768 122.038 121.405 117.15C121.488 116.814 121.558 116.51 121.623 116.23C121.789 115.515 121.918 114.96 122.125 114.449C122.413 113.739 122.472 112.945 122.125 111.607C121.83 108.187 121.834 104.14 121.836 102.098C121.836 101.939 121.837 101.792 121.837 101.658V97.1103C122.088 94.9574 121.653 93.7861 120.684 91.7096C120.076 90.3184 119.938 89.9418 119.817 89.6106C119.658 89.1734 119.527 88.8159 118.38 86.3088C116.364 81.9031 114.558 79.7641 110.027 77.2129C109.018 76.6726 108.587 76.0761 108.299 75.6496C108.227 75.5429 108.146 75.4366 108.058 75.3209C107.795 74.9747 107.471 74.5481 107.147 73.802C106.715 72.8072 106.007 71.4012 104.41 69.5383C103.212 67.4736 102.094 65.9275 101.058 64.4958C100.727 64.0375 100.404 63.5909 100.09 63.1427C98.7935 61.2951 94.9051 56.8894 94.329 56.3209C93.7529 55.7524 91.4487 53.4785 91.1607 52.91C91.1043 52.799 91.0426 52.6608 90.9754 52.5106C90.6984 51.8908 90.3279 51.0624 89.8643 51.0624C89.2885 51.0624 88.5343 51.1299 87.704 51.3467C84.0837 51.3911 81.0793 51.6307 78.631 52.0572C76.1826 52.4835 74.4712 52.7549 71.8621 53.052C71.1165 53.1611 70.2779 53.134 69.5579 53.052C68.9146 52.9788 68.7307 53.1597 68.4937 53.3927C68.4654 53.4207 68.4365 53.4495 68.4057 53.4785C67.6057 53.9632 67.2129 54.1312 66.5334 54.3311C65.8551 54.4544 65.5901 54.7261 65.2373 55.4681C64.759 55.8544 64.6371 56.1137 64.5171 56.6052C63.8868 56.9393 63.7021 57.2677 63.9409 58.3105C63.499 59.3053 63.3209 59.9001 63.2209 61.0109C63.3023 61.6743 63.9409 62.7165 64.229 62.8585C64.5171 63.0007 64.9493 62.8585 64.9493 62.2899C64.9493 62.0243 64.8548 61.8206 64.7687 61.6353C64.6712 61.4245 64.5846 61.2379 64.6612 61.0109C64.8051 60.5846 65.2373 60.1581 65.5254 60.3004C65.6937 60.3834 65.8482 60.5287 66.0132 60.6841C66.1304 60.7943 66.2529 60.9095 66.3893 61.0109C65.9518 62.3179 66.1012 63.285 66.5334 63.5693C66.9654 63.8535 67.3985 63.2263 67.9737 61.7217C69.0704 62.1224 69.4137 62.0059 69.5579 61.7217C69.7018 61.4374 69.6173 61.1208 69.2698 60.7266C69.3173 60.7236 69.3615 60.7211 69.4029 60.7187C69.7146 60.7014 69.8626 60.6934 69.9898 60.4423C70.134 60.1581 69.724 59.5991 68.9818 59.0213C68.9923 58.7261 69.0379 58.5827 69.1018 58.3812C69.1498 58.2302 69.2082 58.0465 69.2698 57.7422C69.3843 57.177 69.7721 57.1512 70.6507 57.0928C70.8768 57.0778 71.1354 57.0605 71.4301 57.0314C71.839 56.9911 72.1665 56.9278 72.5118 56.8612C73.3823 56.6932 74.3654 56.5035 77.0468 56.6052C79.5915 56.7017 82.2026 56.8859 84.1571 57.0235C85.0787 57.0885 85.8543 57.1433 86.4079 57.1737C88.1362 57.2683 88.7123 58.1685 88.7123 58.1685C90.0168 59.4983 90.5143 60.2214 91.3471 61.4319C91.3804 61.4802 91.4143 61.5295 91.4487 61.5794C92.351 63.0246 94.041 65.1326 94.9051 65.9854C95.7693 66.8379 96.1965 67.3779 96.6332 68.5435C97.6418 71.3946 98.5054 73.3757 99.2257 74.2285C99.9457 75.081 98.7935 76.7866 98.7935 76.7866C96.631 76.3091 95.5087 75.7025 93.609 74.3705C93.8968 73.8461 93.5729 73.353 92.3126 72.2387C91.4868 71.785 91.1565 71.8086 90.7285 72.0967C90.1915 70.9569 89.9279 70.6496 89.5762 71.5281C89.6137 71.1682 89.5751 70.8941 89.1443 69.9648C88.2648 68.62 88.0704 68.6745 87.8482 69.112L86.984 68.9698C86.7426 68.4892 86.5407 68.3047 85.976 68.2592H84.6798L83.8157 68.5435C83.8187 68.3933 83.8362 68.3612 83.8301 68.3346C83.8179 68.2828 83.7154 68.2518 83.2396 67.4064C82.6115 66.2907 82.0929 65.1748 82.4487 64.9081C82.6518 64.8689 82.7971 64.8554 82.7968 64.8508C82.7965 64.8483 82.7562 64.8483 82.6635 64.8483C82.5715 64.8483 82.5007 64.8692 82.4487 64.9081C81.9326 65.0081 81.0432 65.2746 81.2232 65.9854C81.3723 66.5739 81.3832 66.7801 81.3904 66.9215C81.3971 67.0536 81.401 67.1296 81.5112 67.4064C80.8879 67.2658 80.4598 67.3299 79.2071 68.2592C78.8546 68.313 78.6185 68.4618 77.9109 69.5383C77.2168 69.3812 77.0204 69.7178 76.9026 70.9596C76.0537 69.7809 75.9596 69.1093 78.3429 67.833C79.0204 67.1559 78.7462 66.813 78.2532 66.1954C78.2354 66.1732 78.2173 66.1504 78.199 66.1274C77.0412 64.6268 76.6654 63.9722 77.1907 63.5693C76.1235 63.3735 76.7587 65.4169 77.0468 65.9854C77.3348 66.5536 77.3348 66.9517 76.9026 67.2644C76.4707 67.5769 75.8946 67.6907 75.1746 67.833C74.4546 67.975 73.0143 68.5435 72.1501 69.6806C72.0851 69.7661 72.0282 69.8612 71.9787 69.9648C71.1987 70.512 70.8046 70.8916 70.2426 71.9396C69.9484 72.7176 69.9734 73.197 70.0984 73.9294C70.1212 74.0621 70.2204 74.203 70.2426 74.3557C70.3865 75.3505 71.8707 76.3209 73.1521 77.2129C73.3234 77.4305 73.5168 77.6646 73.7343 77.9237C73.7343 77.9237 73.0426 77.9453 71.5387 77.4824C71.4093 77.4426 70.8118 77.2433 70.6746 77.1981C68.9465 76.6298 68.1176 75.5076 66.8215 73.802C66.2454 73.044 65.8968 72.623 65.5484 72.2019C65.1129 71.6753 64.6771 71.149 63.7971 69.9648C62.2129 67.833 60.1965 64.1378 59.9084 63.5693C59.6204 63.0007 59.6259 62.5846 59.9084 62.2899C60.0226 62.1438 60.1434 61.9988 60.2682 61.8494C60.5743 61.4829 60.9032 61.0893 61.2048 60.5846C61.6293 59.8741 62.0298 58.813 62.3568 57.7422C63.3315 55.3516 63.7971 54.0468 63.2209 54.0468C62.6448 54.0468 61.9376 54.4111 61.2048 55.7524C61.0171 56.7288 60.7726 57.0314 60.6287 57.0314C60.4846 57.0314 60.4846 56.6052 60.4846 55.4681C60.4846 54.3311 60.5962 53.5391 61.2048 53.4785C61.8134 53.4177 62.9329 52.91 62.9329 52.6257C62.9329 52.498 63.0493 52.3415 63.1776 52.1691C63.3346 51.9583 63.509 51.7233 63.509 51.4887C63.509 51.063 62.7543 51.2954 61.2118 51.7708L61.2048 51.773C61.7546 50.1008 61.7807 49.2148 61.2048 49.3568C60.7257 49.475 60.2343 50.4936 59.7615 51.4736C59.6657 51.6723 59.5707 51.8694 59.4765 52.0572C58.0721 52.4983 56.5962 53.6205 56.4521 54.0468C56.3082 54.4733 56.1343 55.3311 56.0201 56.1786C55.9187 56.7324 55.9276 57.069 56.0201 57.7422C56.0201 57.7422 55.8743 61.2951 55.7321 62.1479C55.5898 63.0007 55.8776 63.9955 56.5962 64.706C57.3148 65.4168 59.0446 69.254 59.0446 69.254C59.0773 69.3236 59.1101 69.3924 59.1423 69.4607C60.7771 72.9062 61.7232 74.9004 63.6532 77.7814C64.1515 78.6304 64.5726 79.1002 65.9573 79.9133C66.2209 80.0533 66.444 80.1712 66.6546 80.2822C67.0332 80.4818 67.3709 80.66 67.8296 80.9083L69.846 81.7609L70.4218 82.0451C70.309 82.5978 69.9854 82.8716 68.9818 83.3242C67.3632 83.7206 66.8415 83.2027 66.6862 83.0487C66.6832 83.0457 66.6801 83.0427 66.6773 83.0402C66.6351 82.9982 66.6096 82.973 66.5859 82.9462C66.5296 82.882 66.4846 82.808 66.2454 82.4717C65.9062 81.9947 65.9573 83.6084 66.2454 83.8927C66.4015 84.047 66.5426 84.0805 66.7162 84.1216C66.8626 84.1561 67.0321 84.1964 67.2535 84.3192C67.7371 84.5876 70.2668 84.4821 72.0062 83.0402C71.9657 83.7981 70.0251 85.4412 68.9818 85.7255C67.9382 86.0098 67.0743 86.0098 66.9301 85.7255C66.8368 85.5413 66.8368 85.4503 66.8365 85.3486C66.8365 85.2935 66.8365 85.2351 66.8215 85.1572C66.2679 85.5193 66.2454 85.8678 66.6773 86.294C67.1096 86.7206 67.9382 86.7206 69.2346 86.4363C70.5307 86.152 71.3543 85.4947 72.0062 84.5054C71.7696 84.987 71.291 85.6295 70.4218 86.5931C69.159 87.5322 68.4254 87.674 67.1096 87.7302C66.1898 87.7611 65.8507 87.7565 65.3812 87.7302C65.2368 87.978 65.6693 88.4407 66.8215 88.5829C67.9737 88.7249 69.846 88.7249 71.7182 87.7302C72.4937 87.3179 72.9551 87.0372 73.2673 86.785C72.8698 87.4039 72.6396 88.0295 72.5821 89.0092L72.5757 89.0432C72.3832 90.0289 72.2734 90.5923 72.8701 91.5673C72.9887 91.8209 73.0773 92.0544 73.1612 92.2751C73.3159 92.6822 73.454 93.0462 73.7343 93.4152C74.1665 93.9834 75.1746 94.2677 74.7423 93.6992C74.4307 93.2888 74.419 93.2488 74.3282 92.9374C74.2932 92.8176 74.2465 92.6572 74.1665 92.4201C73.8784 91.5673 74.1476 90.8244 74.4546 90.004C75.2746 89.2088 75.6707 88.8952 76.3268 88.4407L75.8593 88.8672C75.7434 89.0024 75.6585 89.0783 75.589 89.1405C75.3879 89.3209 75.3162 89.385 74.9951 90.4305C74.5632 91.8368 74.801 92.2378 75.1393 92.5624C75.0293 92.2184 74.9754 91.8817 75.1393 91.2685C75.289 90.893 75.4701 90.6339 75.6712 90.3458C75.7768 90.1948 75.8882 90.0355 76.0035 89.8472C76.7651 88.7071 77.1718 88.3129 77.6262 87.873C77.6793 87.8214 77.7332 87.7693 77.7882 87.7153C77.8212 87.885 77.8471 88.1057 77.8759 88.351C77.9373 88.8752 78.0118 89.5119 78.199 90.004C78.4404 90.64 78.5021 91.098 78.5596 91.5273C78.6051 91.8658 78.6479 92.1866 78.7751 92.5624C79.0334 93.3277 78.9051 93.6271 78.7026 94.0988C78.6796 94.1526 78.6554 94.2085 78.631 94.2677C78.089 95.1652 79.7832 94.2677 80.3593 93.6992C80.8446 93.2203 80.671 92.7852 80.4701 92.2828C80.4329 92.189 80.3943 92.0931 80.3593 91.9938C80.0037 89.8683 80.1693 89.8521 80.6473 90.4305L81.6554 92.2781C81.786 92.8911 81.7768 93.1219 81.6554 93.4152C82.1615 93.2137 82.5196 92.9886 82.6635 92.2781C82.7515 91.8445 82.7857 91.6753 82.7662 91.5125C82.7537 91.4086 82.7196 91.3072 82.6635 91.1411C82.6276 91.0352 82.5954 90.9122 82.5707 90.7869C83.184 90.7992 83.5237 90.8834 83.9243 91.4105C84.3565 91.979 83.7029 92.9324 83.2043 93.1161C83.211 93.1156 83.2176 93.115 83.2243 93.1145C83.4957 93.0928 83.656 93.0802 84.3565 92.5476C84.7035 92.1397 84.7437 91.8853 84.6446 91.4105C84.5015 90.9423 84.3226 90.7422 83.9596 90.4305C84.3376 90.5528 84.5326 90.66 84.8237 91.1411C84.9273 90.5731 84.949 90.2334 84.8237 89.5777C84.7121 89.2661 84.646 89.109 84.3918 88.8672C87.5218 90.5698 89.2596 91.4917 91.4487 91.1411L94.041 93.1309C95.1787 94.1718 95.7037 94.47 96.4893 94.41C96.7079 95.035 97.1557 95.2965 98.2173 95.689C100.442 96.7493 101.664 97.3872 103.546 98.9579C103.526 99.5023 104.122 100.095 104.698 100.521C105.159 100.862 105.251 101.022 105.491 101.435C105.551 101.539 105.62 101.658 105.707 101.8C106.138 102.511 106.715 103.79 106.715 104.074C106.715 104.358 106.554 105.067 106.283 105.78C105.827 106.617 105.542 107.103 105.119 107.827C105.076 107.9 105.032 107.975 104.986 108.054C99.5865 114.048 99.5532 118.781 100.522 127.809C100.549 128.722 100.502 129.168 100.378 129.941C99.3176 134.179 99.6576 139.179 100.09 139.889C100.412 140.419 99.7954 141.566 99.1462 142.773C98.9246 143.186 98.6987 143.606 98.5054 144.011C95.9968 142.577 91.2048 141.651 87.9704 141.026C86.4296 140.729 85.2421 140.499 84.8237 140.316C84.1071 140.001 83.5665 139.818 83.056 139.644C82.6432 139.503 82.2501 139.369 81.7993 139.179C81.1621 138.909 80.5246 138.924 80.0326 138.935C79.7468 138.941 79.5098 138.947 79.3509 138.895C78.9854 138.774 79.1512 138.215 79.3721 137.47C79.4121 137.335 79.4543 137.193 79.4951 137.047C79.5504 136.883 79.6223 136.73 79.6926 136.581C79.9079 136.126 80.1087 135.7 79.7832 135.057C79.351 134.204 76.3171 134.16 72.7262 135.484C71.8565 135.074 70.9401 134.619 70.0732 134.188C68.4734 133.394 67.0432 132.683 66.3893 132.499C65.3812 132.215 64.8051 133.068 64.6612 133.92C64.5301 134.696 65.1143 135.119 65.6548 135.51C65.7082 135.549 65.7615 135.587 65.8134 135.626C66.3893 136.052 66.8215 136.478 67.3976 137.047C67.5393 137.187 67.6723 137.327 67.8076 137.469C68.2212 137.904 68.6537 138.359 69.4137 138.895C69.9951 139.304 70.2412 139.761 70.4835 140.211C70.6612 140.541 70.8371 140.868 71.1421 141.168C71.8621 141.879 72.9148 142.602 73.8785 143.016C74.2982 143.146 74.7921 143.281 75.2782 143.413C76.2982 143.691 77.2837 143.961 77.4787 144.153C77.5623 144.236 77.6187 144.318 77.6751 144.401C77.8126 144.602 77.9501 144.804 78.4871 145.006C79.011 145.181 79.4962 145.323 79.9637 145.46C80.784 145.699 81.5498 145.923 82.3754 146.285C82.8196 146.48 83.816 147.063 85.0865 147.808C87.5237 149.235 90.9701 151.254 93.4648 152.254C92.0001 154.408 91.6751 156.95 91.4385 158.805C91.3929 159.16 91.3509 159.49 91.3046 159.787C91.1779 160.599 90.9676 161.439 90.7596 162.271C90.4946 163.33 90.2332 164.374 90.1523 165.329C90.0304 166.776 89.701 168.529 89.4279 169.982C89.379 170.242 89.3321 170.493 89.2884 170.73C89.1443 171.512 89.0362 172.151 88.9462 172.684C88.8562 173.217 88.7843 173.644 88.7123 173.999C88.6546 174.283 88.551 174.659 88.4473 175.034C88.2918 175.596 88.1362 176.159 88.1362 176.415C88.1362 176.841 87.8298 177.053 87.416 177.126C85.4937 176.881 84.6798 177.41 84.3918 177.978C84.1037 178.547 84.0612 180.527 85.5437 182.811C85.9357 183.621 85.9565 184.091 85.8318 184.943C85.8318 184.943 82.8076 192.333 82.6635 193.47C82.5196 194.607 84.3918 196.028 85.3998 195.459C86.0454 195.095 86.7501 193.916 87.3623 192.89ZM71.829 74.7968C71.8665 75.0942 71.9271 75.3595 72.0157 75.6134C71.3648 74.9056 71.0246 74.2137 70.9296 73.802C70.8343 73.3905 70.8187 72.7924 70.9296 72.3661C71.0404 71.9396 71.324 71.1109 71.6518 70.3774C71.3465 71.5073 71.5957 73.1956 71.7537 74.2663C71.7835 74.4676 71.8098 74.6471 71.829 74.7968Z" fill="white"/>
<path d="M70.0983 73.9294C69.4166 74.9286 69.2069 75.6866 70.6744 77.1981C70.8116 77.2433 71.4091 77.4426 71.5386 77.4824C70.105 76.1156 69.7514 75.2417 70.0983 73.9294Z" fill="white"/>
</svg>
