<svg xmlns="http://www.w3.org/2000/svg" aria-hidden="true" style="position:absolute;width:0;height:0;overflow:hidden"><defs>
<symbol id="icon-modal-close-btn" viewBox="0 0 36 32">
<path d="M18 18l-16.4-14.133c-0.533-0.533-0.667-1.6-0.133-2.267s1.467-0.667 2.133-0.133l14.267 12.4 14.267-12.4c0.667-0.533 1.6-0.533 2.133 0.133s0.533 1.6-0.133 2.133l-16.133 14.267z"></path>
<path d="M33.333 30.933c-0.4 0-0.667-0.133-1.067-0.4l-14.267-12.4-14.267 12.4c-0.667 0.533-1.6 0.533-2.133-0.133s-0.533-1.6 0.133-2.133l16.4-14.267 16.4 14.267c0.667 0.533 0.667 1.467 0.133 2.133-0.533 0.267-0.933 0.533-1.333 0.533z"></path></symbol>
<symbol id="icon-charm-menu" viewBox="0 0 45 32">
<path d="M42.667 4.267h-40c-0.8 0-1.467-0.8-1.467-1.6s0.667-1.467 1.467-1.467h40c0.8 0 1.6 0.667 1.6 1.467s-0.8 1.6-1.6 1.6z"></path>
<path d="M42.667 30.933h-40c-0.8 0-1.467-0.667-1.467-1.6s0.667-1.6 1.467-1.6h40c0.8 0 1.6 0.667 1.6 1.6s-0.8 1.6-1.6 1.6z"></path>
<path d="M42.667 17.6h-40c-0.8 0-1.467-0.667-1.467-1.6s0.667-1.467 1.467-1.467h40c0.8 0 1.6 0.667 1.6 1.467s-0.8 1.6-1.6 1.6z"></path>
</symbol>
<symbol id="icon-logo" viewBox="0 0 36 32">
<path  d="M15.76 2.2c-2.695-0.677 2.929 1.596 7.475 2.747 4.485 0.808 5.532 3.887 3.838 5.072 0 0.078 0.072-0.073 0 0-0.661 1.137-2.899 1.425-9.21 2.22-3.352 0.423-6.903 0.295-9.314 0.351-1.99 0.393-4.336 1.050-3.699 1.655 1.022 0.97 7.208 1.122 12.777 1.449 0.936-0.025 1.838-0.048 2.667-0.048 1.942 0 4.843 0.324 7.599 0.784 3.768 0.404 6.417 0.983 7.259 2.042-0.014-0.059 0.066 0.063 0 0 0.166 0.199 0.135 0.701 0 0.845-0.62 1.372-6.798 1.767-14.138 2.185-0.348 0.072-0.695 0.148-1.041 0.229-6.076 1.411-12.791 1.087-16.134 1.39-0.737 0.183-1.956 0.606-2.29 0.845-0.182 1.452 12.209 2.747 15.25 2.943 2.218 0 11.845 0.055 15.226 1.088 0.886 0.128 1.434 0.369 1.266 0.85 0.458 2.6-30.904 0.603-31.887 1.782 0.027-0.062 0.039-0.121 0.142-0.176 1.808-0.976 15.391-0.631 17.469-0.631 2.197 0 9.853 0.631 14.275-0.975 0.098-0.281-0.346-0.57-1.266-0.85-1.529-0.22-3.52-0.287-4.028-0.287-0.704 0-30.248-1.030-26.448-3.744-0.129-0.349 1.155-0.743 2.29-0.845 3.533-0.878 10.13-1.217 17.175-1.619 6.796-1.414 13.248-1.237 14.138-2.185 0.072-0.159 0.098-0.663 0-0.845-0.034-0.062 0.047 0.059 0 0-0.681-0.646-3.682-1.445-7.259-2.042-3.138-0.337-6.821-0.533-10.266-0.736-4.379 0.118-10.753 0.472-12.777-1.449-1.231-1.168 1.279-1.599 3.699-1.655 5.371-1.062 17.262-1.295 18.523-2.571-0.031 0.078 0.042-0.073 0 0 0.377-0.772 0.129-4.104-3.838-5.072-2.366-0.426-5.819-2.332-7.475-2.747z"></path>
<path  d="M16.888 6.204c-0.312-0.848-0.409-1.367-0.511-2.334-0.034-0.203-0.038-0.303-0.149-0.442-0.232-0.184-0.511-0.568-0.554-0.673s-0.141-0.168-0.192-0.21c-0.050-0.042-0.213-0.231-0.341-0.252s-0.17-0.147-0.17-0.189 0.703 0 0.703 0l0.192 0.042c-0.010-0.044-0.028-0.069-0.064-0.126s-0.341-0.294-0.384-0.336 0.021-0.105 0.085-0.084c0.064 0.021 0.341 0.189 0.469 0.336s0.277 0.273 0.32 0.421 0.2 0.474 0.341 0.715c0.068 0.111 0.103 0.178 0.149 0.315l0.106 0.421c0.086 0.268 0.138 0.422 0.256 0.715 0.434 0.883 0.582 1.347 0.746 2.040 0.029 0.087 0.052 0.138 0.106 0.231 0.213 0.365 0.32 1.051 0.49 1.304s0.256 0.315 0.533 0.673c0.277 0.357 0.533 1.072 0.533 1.135s0.384 0.231 0.469 0.252c0.085 0.021 0.213 0.063 0.298 0s0.298-0.21 0.298-0.315c0-0.105-0.021-0.168 0.043-0.252s-0.298-0.526-0.298-0.631c0-0.105 0.055-0.18 0.213-0.231 0.045-0.031 0.106-0.021 0.085-0.105s0.017-0.128 0.149-0.168c0.034-0.093 0.070-0.109 0.149-0.105 0.035-0.022 0.056-0.042 0.043-0.084-0.013-0.092 0-0.21 0.085-0.21s0.384 0.126 0.447 0.189c0.064 0.063 0.107 0.042 0.192 0s0.353 0.016 0.426 0.063 0.234 0.042 0.277 0c0.043-0.042 0.106-0.084 0.213-0.042s0.12-0.034 0.17 0c0.251 0.009 0.234 0.105 0.234 0.21s0.192 0.357 0.17 0.505c-0.021 0.147 0.064 0.021 0.085 0.189s0.085 0.399 0 0.547 0.085 0.526-0.064 0.61c-0.149 0.084-0.021 0.273-0.128 0.315s-0.405 0.105-0.426 0.189c-0.021 0.084-0.043 0.273-0.149 0.231s-0.442 0-0.469-0.105c-0.027-0.105-0.234 0.042-0.256 0.105s0.040 0.174 0.213 0.336c0.716 0.068 0.959 0.315 1.236 0.547s0.362 0.463 0.618 0.673c0.256 0.21 0.746 0.463 0.938 0.589s0.383 0.21 0.554 0.252c0.17 0.042 0.66 0.168 1.3 0.484s1.491 0.652 1.704 0.694c0.213 0.042 0.369 0.088 0.511 0.189s0.298 0.231 0.469 0.294c0.17 0.063 0.128 0.021 0.256 0.147s0.32 0.294 0.362 0.357c0.042 0.063 0.213 0.441 0.213 0.505s-0.048 0.056-0.106 0.042c0.005 0.073-0.050 0.074-0.106 0.084-0.035 0.201-0.021 0.231-0.085 0.231s-0.085-0.105-0.085-0.231c0-0.126-0.162-0.338-0.298-0.399-0.006 0.072-0.021 0.168-0.106 0.147s-0.192-0.231-0.384-0.316c-0.192-0.084-0.362-0.21-0.426-0.357s-0.175-0.23-0.405-0.273c-0.54-0.014-0.81-0.051-1.044-0.084s-1.3-0.442-1.513-0.442c-0.213 0-0.277 0-0.618-0.231s-0.874-0.315-1.172-0.442c-0.298-0.126-0.439-0.209-0.639-0.357-0.372-0.293-0.788-0.526-0.895-0.568s-0.17-0.067-0.277 0c-0.107 0.067-0.298 0.252-0.511 0.463s-0.277 0.273-0.511 0.715c-0.234 0.442-0.233 0.717-0.085 0.862 1.076 0.643 1.357 1.126 1.321 2.208 0.202 0.221 0.338 0.399 0.49 0.631s0.383 0.336 0.469 0.421c0.085 0.084 0.341 0.084 0.724 0.042s0.618-0.042 0.98 0.042c0.362 0.084 0.533 0.147 1.065 0.336s1.243 0.442 1.491 0.484 0.277 0.021 0.362 0c0.085-0.021 0.192-0.042 0.341-0.105s0.149-0.084 0.256-0.084c0.106 0 0.192 0.189 0.277 0.189s0.739 0.079 1.023 0.378c0.050 0 0.085-0.021 0.128 0s0 0.063 0.064 0.063c0.064 0 0.128 0.042 0.149 0.063s0.023 0.077 0 0.126c0.046 0.026 0.064 0.063 0.064 0.105s0.021 0.021-0.128 0.147-0.192 0.021-0.405 0.084c-0.213 0.063-0.128 0-0.405 0s-0.597-0.084-0.703-0.105c-0.107-0.021-0.213 0-0.341-0.021s-0.341-0.042-0.767-0.231-0.763-0.21-1.172-0.231c-0.409-0.021-0.959-0.013-1.491-0.147-0.295-0.067-0.511-0.021-0.703-0.042s-0.58 0.050-1.278 0.189c-0.017 0.276 0.064 1.009 0.149 1.157s0.17 0.294 0.234 0.483c0.064 0.189 0.021 0.294 0.085 0.463s0.17 0.442 0.256 0.631c0.085 0.189 0.192 1.388 0.192 1.829s0.064 0.925 0.085 1.325c0.021 0.399 0.043 0.799 0.085 0.904s0.128 0.231 0.128 0.336-0.043 0.231 0 0.315c0.043 0.084 0.094 0.125 0.128 0.252 0.042 0.131 0.043 0.231 0.128 0.358s0.043 0.084 0.128 0.252c0.085 0.168 0.321 0.378 0.384 0.421s0.097 0.066 0.128 0.126c0.029 0.065 0.064 0.105 0.085 0.147s0.021 0.042 0 0.063-0.064 0.042-0.064 0.063c0 0.021-0.109 0.028-0.213 0.021-0.033 0.032-0.021 0.017-0.128 0.042s-0.724-0.021-0.788-0.084-0.107-0.399-0.17-0.61c-0.064-0.21-0.192-0.505-0.213-0.547s-0.013-0.078-0.085-0.126c-0.155-0.099-0.234-0.168-0.256-0.252s0-0.21 0.042-0.273c0.043-0.063 0.064-0.126 0.064-0.231s0.021-0.063 0.021-0.168-0.020-0.378-0.043-0.526c-0.023-0.147-0.021-0.231-0.128-0.589s-0.426-1.177-0.469-1.388c-0.043-0.21-0.192-0.547-0.213-0.799s-0.021-0.904-0.064-1.072-0.234-0.357-0.298-0.547c-0.064-0.189-0.085-0.4-0.192-0.547s-0.256-0.484-0.277-0.673c-0.021-0.189-0.064-0.358-0.192-0.526s-0.511-1.114-0.596-1.262c-0.085-0.147-0.405-0.273-0.618-0.505s-0.239-0.216-0.341-0.336l-0.256-0.252c-0.199-0.192-0.149-0.21-0.234-0.357s-0.482-0.63-0.639-1.009c-0.055-0.064-0.064-0.147-0.107-0.189s-0.020-0.166 0-0.231c-0.104-0.301-0.128-0.505-0.213-0.799s-0.128-0.61-0.192-0.946c-0.064-0.336-0.019-0.975 0-1.114s-0.046-0.262 0-0.42c0.013-0.319 0.085-0.484 0.17-0.736s0-1.22 0-1.22c-0.039-0.41-0.094-0.573-0.234-0.778-0.361-0.642-0.426-1.051-0.533-1.598s-0.256-0.883-0.405-1.283c-0.104-0.097-0.128-0.294-0.17-0.505z"></path>
<path  d="M12.707 28.057c0.050-0.084 0.096-0.16 0.133-0.205 0.006-0.007 0.011-0.013 0.017-0.020 0.091-0.107 0.113-0.133 0.172-0.27 0.053-0.121 0.135-0.199 0.209-0.269 0.015-0.014 0.029-0.027 0.042-0.041 0.084-0.083 0.126-0.186 0.147-0.289 0.007-0.035 0.026-0.089 0.049-0.154 0.045-0.127 0.104-0.295 0.118-0.446 0.006-0.063 0.008-0.126 0.011-0.187 0.006-0.159 0.012-0.302 0.073-0.392 0.054-0.080 0.064-0.151 0.076-0.23 0.007-0.044 0.014-0.090 0.029-0.142 0.042-0.145 0.042-0.207 0.042-0.31s0.419-1.158 0.419-1.158c0.072-0.204 0.141-0.438 0.202-0.646 0.099-0.335 0.178-0.603 0.217-0.574 0.063 0.046 0.356 0.124 0.524 0.083 0.109-0.027 0.191-0.132 0.264-0.225 0.040-0.050 0.076-0.098 0.113-0.127 0.105-0.083 0.209-0.397 0.251-0.662 0.053-0.284 0.124-0.506 0.194-0.723 0.069-0.213 0.136-0.422 0.183-0.683 0.46-0.542 0.796-1.054 1.026-1.592s0.347-1.046 0.44-1.757c0.012-0.049 0.022-0.093 0.032-0.134 0.024-0.104 0.043-0.185 0.073-0.259 0.042-0.103 0.050-0.219 0-0.413-0.043-0.497-0.042-1.086-0.042-1.383 0-0.023 0-0.044 0-0.064v-0.661c0.037-0.313-0.027-0.484-0.168-0.786-0.088-0.202-0.108-0.257-0.126-0.305-0.023-0.064-0.042-0.116-0.209-0.48-0.293-0.641-0.556-0.952-1.215-1.323-0.147-0.079-0.209-0.165-0.251-0.227-0.010-0.016-0.022-0.031-0.035-0.048-0.038-0.050-0.085-0.112-0.133-0.221-0.063-0.145-0.166-0.349-0.398-0.62-0.174-0.3-0.337-0.525-0.488-0.733-0.048-0.067-0.095-0.132-0.141-0.197-0.189-0.269-0.754-0.91-0.838-0.992s-0.419-0.413-0.461-0.496c-0.008-0.016-0.017-0.036-0.027-0.058-0.040-0.090-0.094-0.211-0.162-0.211-0.084 0-0.193 0.010-0.314 0.041-0.527 0.006-0.964 0.041-1.32 0.103s-0.605 0.101-0.985 0.145c-0.108 0.016-0.23 0.012-0.335 0-0.094-0.011-0.12 0.016-0.155 0.050-0.004 0.004-0.008 0.008-0.013 0.012-0.116 0.071-0.174 0.095-0.272 0.124-0.099 0.018-0.137 0.057-0.189 0.165-0.070 0.056-0.087 0.094-0.105 0.165-0.092 0.049-0.119 0.096-0.084 0.248-0.064 0.145-0.090 0.231-0.105 0.393 0.012 0.097 0.105 0.248 0.147 0.269s0.105 0 0.105-0.083c0-0.039-0.014-0.068-0.026-0.095-0.014-0.031-0.027-0.058-0.016-0.091 0.021-0.062 0.084-0.124 0.126-0.103 0.024 0.012 0.047 0.033 0.071 0.056 0.017 0.016 0.035 0.033 0.055 0.048-0.064 0.19-0.042 0.331 0.021 0.372s0.126-0.050 0.21-0.269c0.16 0.058 0.209 0.041 0.23 0s0.009-0.087-0.042-0.145c0.007-0 0.013-0.001 0.019-0.001 0.045-0.003 0.067-0.004 0.085-0.040 0.021-0.041-0.039-0.123-0.147-0.207 0.002-0.043 0.008-0.064 0.017-0.093 0.007-0.022 0.015-0.049 0.024-0.093 0.017-0.082 0.073-0.086 0.201-0.094 0.033-0.002 0.070-0.005 0.113-0.009 0.059-0.006 0.107-0.015 0.157-0.025 0.127-0.024 0.27-0.052 0.66-0.037 0.37 0.014 0.75 0.041 1.034 0.061 0.134 0.009 0.247 0.017 0.327 0.022 0.251 0.014 0.335 0.145 0.335 0.145 0.19 0.193 0.262 0.299 0.383 0.475 0.005 0.007 0.010 0.014 0.015 0.021 0.131 0.21 0.377 0.517 0.503 0.641s0.188 0.203 0.251 0.372c0.147 0.415 0.272 0.703 0.377 0.827s-0.063 0.372-0.063 0.372c-0.315-0.069-0.478-0.158-0.754-0.351 0.042-0.076-0.005-0.148-0.189-0.31-0.12-0.066-0.168-0.063-0.23-0.021-0.078-0.166-0.116-0.21-0.168-0.083 0.005-0.052-0-0.092-0.063-0.227-0.128-0.196-0.156-0.188-0.189-0.124l-0.126-0.021c-0.035-0.070-0.064-0.097-0.147-0.103h-0.189l-0.126 0.041c0-0.022 0.003-0.027 0.002-0.030-0.002-0.008-0.017-0.012-0.086-0.135-0.091-0.162-0.167-0.325-0.115-0.363 0.030-0.006 0.051-0.008 0.051-0.008s-0.006-0-0.019-0c-0.013 0-0.024 0.003-0.031 0.009-0.075 0.015-0.204 0.053-0.178 0.157 0.022 0.086 0.023 0.116 0.024 0.136 0.001 0.019 0.002 0.030 0.018 0.071-0.091-0.020-0.153-0.011-0.335 0.124-0.051 0.008-0.086 0.029-0.189 0.186-0.101-0.023-0.13 0.026-0.147 0.207-0.123-0.171-0.137-0.269 0.21-0.455 0.099-0.098 0.059-0.148-0.013-0.238-0.003-0.003-0.005-0.007-0.008-0.010-0.168-0.218-0.223-0.313-0.147-0.372-0.155-0.028-0.063 0.269-0.021 0.351s0.042 0.141-0.021 0.186c-0.063 0.045-0.147 0.062-0.251 0.083s-0.314 0.103-0.44 0.269c-0.009 0.012-0.018 0.026-0.025 0.041-0.113 0.080-0.171 0.135-0.253 0.287-0.043 0.113-0.039 0.183-0.021 0.289 0.003 0.019 0.018 0.040 0.021 0.062 0.021 0.145 0.237 0.286 0.423 0.416 0.025 0.032 0.053 0.066 0.085 0.103 0 0-0.101 0.003-0.319-0.064-0.019-0.006-0.106-0.035-0.126-0.041-0.251-0.083-0.372-0.246-0.56-0.494-0.084-0.11-0.134-0.171-0.185-0.233-0.063-0.077-0.127-0.153-0.255-0.325-0.23-0.31-0.524-0.848-0.566-0.93s-0.041-0.143 0-0.186c0.017-0.021 0.034-0.042 0.052-0.064 0.045-0.053 0.092-0.111 0.136-0.184 0.062-0.103 0.12-0.258 0.168-0.413 0.142-0.348 0.21-0.537 0.126-0.537s-0.187 0.053-0.293 0.248c-0.027 0.142-0.063 0.186-0.084 0.186s-0.021-0.062-0.021-0.227c0-0.165 0.016-0.281 0.105-0.289s0.251-0.083 0.251-0.124c0-0.019 0.017-0.041 0.036-0.066 0.023-0.031 0.048-0.065 0.048-0.099 0-0.062-0.11-0.028-0.334 0.041l-0.001 0c0.080-0.243 0.084-0.372 0-0.351-0.070 0.017-0.141 0.165-0.21 0.308-0.014 0.029-0.028 0.058-0.041 0.085-0.204 0.064-0.419 0.227-0.44 0.289s-0.046 0.187-0.063 0.31c-0.015 0.081-0.013 0.13 0 0.227 0 0-0.021 0.517-0.042 0.641s0.021 0.269 0.126 0.372c0.105 0.103 0.356 0.662 0.356 0.662 0.005 0.010 0.010 0.020 0.014 0.030 0.238 0.501 0.375 0.791 0.656 1.21 0.072 0.123 0.134 0.192 0.335 0.31 0.038 0.020 0.071 0.037 0.101 0.054 0.055 0.029 0.104 0.055 0.171 0.091l0.293 0.124 0.084 0.041c-0.016 0.080-0.063 0.12-0.209 0.186-0.235 0.058-0.311-0.018-0.334-0.040-0-0-0.001-0.001-0.001-0.001-0.006-0.006-0.010-0.010-0.013-0.014-0.008-0.009-0.015-0.020-0.050-0.069-0.049-0.069-0.042 0.165 0 0.207 0.023 0.022 0.043 0.027 0.068 0.033 0.021 0.005 0.046 0.011 0.078 0.029 0.070 0.039 0.438 0.024 0.691-0.186-0.006 0.11-0.288 0.349-0.44 0.391s-0.277 0.041-0.298 0c-0.014-0.027-0.014-0.040-0.014-0.055 0-0.008 0-0.017-0.002-0.028-0.081 0.053-0.084 0.103-0.021 0.165s0.183 0.062 0.372 0.021c0.189-0.041 0.308-0.137 0.403-0.281-0.034 0.070-0.104 0.164-0.23 0.304-0.184 0.137-0.29 0.157-0.482 0.165-0.134 0.005-0.183 0.004-0.251 0-0.021 0.036 0.042 0.103 0.21 0.124s0.44 0.021 0.712-0.124c0.113-0.060 0.18-0.101 0.225-0.137-0.058 0.090-0.091 0.181-0.1 0.324l-0.001 0.005c-0.028 0.143-0.044 0.225 0.043 0.367 0.017 0.037 0.030 0.071 0.042 0.103 0.023 0.059 0.043 0.112 0.083 0.166 0.063 0.083 0.21 0.124 0.147 0.041-0.045-0.060-0.047-0.066-0.060-0.111-0.005-0.017-0.012-0.041-0.024-0.075-0.042-0.124-0.003-0.232 0.042-0.351 0.119-0.116 0.177-0.161 0.272-0.227l-0.068 0.062c-0.017 0.020-0.029 0.031-0.039 0.040-0.029 0.026-0.040 0.036-0.086 0.188-0.063 0.205-0.028 0.263 0.021 0.31-0.016-0.050-0.024-0.099 0-0.188 0.022-0.055 0.048-0.092 0.077-0.134 0.015-0.022 0.032-0.045 0.048-0.073 0.111-0.166 0.17-0.223 0.236-0.287 0.008-0.008 0.016-0.015 0.024-0.023 0.005 0.025 0.009 0.057 0.013 0.092 0.009 0.076 0.020 0.169 0.047 0.24 0.035 0.092 0.044 0.159 0.052 0.222 0.007 0.049 0.013 0.096 0.031 0.151 0.038 0.111 0.019 0.155-0.011 0.223-0.003 0.008-0.007 0.016-0.010 0.025-0.079 0.131 0.168 0 0.251-0.083 0.071-0.070 0.045-0.133 0.016-0.206-0.005-0.014-0.011-0.028-0.016-0.042-0.052-0.309-0.028-0.312 0.042-0.227l0.147 0.269c0.019 0.089 0.018 0.123 0 0.165 0.074-0.029 0.126-0.062 0.147-0.165 0.013-0.063 0.018-0.088 0.015-0.111-0.002-0.015-0.007-0.030-0.015-0.054-0.005-0.015-0.010-0.033-0.014-0.052 0.089 0.002 0.139 0.014 0.197 0.091 0.063 0.083-0.032 0.221-0.105 0.248 0.001-0 0.002-0 0.003-0 0.039-0.003 0.063-0.005 0.165-0.082 0.050-0.059 0.056-0.096 0.042-0.165-0.021-0.068-0.047-0.097-0.1-0.143 0.055 0.018 0.083 0.033 0.126 0.103 0.015-0.083 0.018-0.132 0-0.227-0.016-0.045-0.026-0.068-0.063-0.103 0.455 0.248 0.708 0.382 1.026 0.331l0.377 0.289c0.165 0.151 0.242 0.195 0.356 0.186 0.032 0.091 0.097 0.129 0.251 0.186 0.324 0.154 0.501 0.247 0.775 0.475-0.003 0.079 0.084 0.165 0.168 0.227 0.067 0.050 0.080 0.073 0.115 0.133 0.009 0.015 0.019 0.032 0.031 0.053 0.063 0.103 0.147 0.289 0.147 0.331s-0.023 0.144-0.063 0.248c-0.066 0.122-0.108 0.192-0.169 0.298-0.006 0.011-0.013 0.022-0.019 0.033-0.785 0.872-0.79 1.56-0.649 2.873 0.004 0.133-0.003 0.198-0.021 0.31-0.154 0.616-0.105 1.344-0.042 1.447 0.047 0.077-0.043 0.244-0.137 0.419-0.032 0.060-0.065 0.121-0.093 0.18-0.365-0.209-1.062-0.343-1.532-0.434-0.224-0.043-0.397-0.077-0.458-0.103-0.104-0.046-0.183-0.072-0.257-0.098-0.060-0.020-0.117-0.040-0.183-0.068-0.093-0.039-0.185-0.037-0.257-0.035-0.042 0.001-0.076 0.002-0.099-0.006-0.053-0.018-0.029-0.099 0.003-0.207 0.006-0.020 0.012-0.040 0.018-0.062 0.008-0.024 0.018-0.046 0.029-0.068 0.031-0.066 0.061-0.128 0.013-0.222-0.063-0.124-0.504-0.13-1.026 0.062-0.127-0.060-0.26-0.126-0.386-0.189-0.233-0.116-0.441-0.219-0.536-0.246-0.147-0.041-0.23 0.083-0.251 0.207-0.019 0.113 0.066 0.174 0.145 0.231 0.008 0.006 0.016 0.011 0.023 0.017 0.084 0.062 0.147 0.124 0.23 0.207 0.021 0.020 0.040 0.041 0.060 0.061 0.060 0.063 0.123 0.129 0.234 0.207 0.085 0.059 0.12 0.126 0.156 0.191 0.026 0.048 0.051 0.096 0.096 0.139 0.105 0.103 0.258 0.209 0.398 0.269 0.061 0.019 0.133 0.039 0.204 0.058 0.148 0.040 0.292 0.080 0.32 0.108 0.012 0.012 0.020 0.024 0.029 0.036 0.020 0.029 0.040 0.059 0.118 0.088 0.076 0.025 0.147 0.046 0.215 0.066 0.119 0.035 0.231 0.067 0.351 0.12 0.065 0.028 0.21 0.113 0.394 0.222 0.354 0.208 0.856 0.501 1.219 0.647-0.213 0.313-0.26 0.683-0.295 0.953-0.007 0.052-0.013 0.1-0.019 0.143-0.018 0.118-0.049 0.24-0.079 0.361-0.039 0.154-0.077 0.306-0.088 0.445-0.018 0.21-0.066 0.465-0.105 0.677-0.007 0.038-0.014 0.074-0.020 0.109-0.021 0.114-0.037 0.207-0.050 0.284s-0.024 0.14-0.034 0.191c-0.008 0.041-0.023 0.096-0.039 0.151-0.023 0.082-0.045 0.164-0.045 0.201 0 0.062-0.045 0.093-0.105 0.103-0.28-0.036-0.398 0.041-0.44 0.124s-0.048 0.371 0.168 0.703c0.057 0.118 0.060 0.186 0.042 0.31 0 0-0.44 1.075-0.461 1.24s0.251 0.372 0.398 0.289c0.094-0.053 0.196-0.224 0.285-0.374zM10.448 10.88c0.005 0.043 0.014 0.082 0.027 0.119-0.095-0.103-0.144-0.204-0.158-0.263s-0.016-0.147 0-0.209 0.057-0.183 0.105-0.289c-0.044 0.164-0.008 0.41 0.015 0.566 0.004 0.029 0.008 0.055 0.011 0.077z"></path>
<path  d="M10.196 10.753c-0.099 0.145-0.13 0.256 0.084 0.475 0.020 0.007 0.107 0.036 0.126 0.041-0.209-0.199-0.26-0.326-0.21-0.517z"></path>
</symbol>
<symbol id="icon-mail" viewBox="0 0 45 32">
<path d="M39.513 31.165h-35.617c-2.087 0-3.896-1.67-3.896-3.896v-22.817c0-2.087 1.67-3.896 3.896-3.896h35.757c2.087 0 3.896 1.67 3.896 3.896v22.957c-0.139 2.087-1.809 3.757-4.035 3.757zM3.896 1.948c-1.391 0-2.504 1.113-2.504 2.504v22.957c0 1.391 1.113 2.504 2.504 2.504h35.757c1.391 0 2.504-1.113 2.504-2.504v-22.957c0-1.391-1.113-2.504-2.504-2.504h-35.757zM38.957 29.217c-0.557 0-1.113-0.139-1.53-0.417l-10.296-8.765-5.426 5.009-5.426-5.009-10.157 8.765c-0.557 0.278-1.252 0.417-1.809 0.417-0.417 0-1.113-0.139-1.67-0.835-0.417-0.417-0.557-1.113-0.417-1.809 0.139-0.557 0.417-0.974 0.696-1.252l9.043-9.322-9.461-8.626c-0.278-0.278-0.835-0.974-0.974-1.809s0.139-1.67 0.835-2.365c0.696-0.696 1.53-0.974 2.504-0.835 0.557 0.139 1.113 0.417 1.809 0.974l15.026 12.104 15.026-12.104c0.557-0.557 1.252-0.835 1.809-0.974 0.835-0.139 1.809 0.139 2.504 0.835s0.974 1.53 0.835 2.365c-0.139 0.835-0.696 1.391-0.974 1.67v0l-9.322 8.487 8.904 9.322c0.278 0.278 0.557 0.696 0.696 1.391s0 1.391-0.557 1.809c-0.417 0.696-1.113 0.835-1.67 0.974 0 0 0 0 0 0zM27.13 18.087l11.13 9.461c0.139 0.139 0.417 0.139 0.696 0.139 0.139 0 0.557 0 0.696-0.278 0.278-0.278 0.278-0.557 0.139-0.696 0-0.278-0.278-0.557-0.278-0.696l-9.878-10.296 10.296-9.461c0.139-0.139 0.417-0.557 0.557-0.974s-0.139-0.835-0.417-1.252c-0.417-0.417-0.835-0.557-1.252-0.417-0.417 0-0.696 0.278-1.113 0.696l-16 12.8-16-12.8c-0.417-0.278-0.696-0.557-1.113-0.557-0.417-0.139-0.835 0-1.252 0.417s-0.557 0.835-0.417 1.252c0.139 0.417 0.417 0.835 0.557 0.974l10.296 9.461-9.878 10.296c-0.139 0.139-0.278 0.278-0.278 0.696 0 0.139 0 0.417 0.139 0.696 0.139 0.139 0.557 0.278 0.696 0.278 0.278 0 0.557 0 0.696-0.139l11.13-9.461 5.426 5.009 5.426-5.148z"></path>
</symbol>
<symbol id="icon-tel" viewBox="0 0 37 32">
<path d="M11.378 31.289c-1.185 0-2.607-0.237-4.148-0.83-1.304-0.474-2.726-1.067-4.148-1.896l-0.711-0.237 9.126-7.822 2.489 2.844c0.237 0.237 0.474 0.237 0.711 0.356 0.237 0 0.593 0 0.948-0.237 0.593-0.237 1.422-0.711 2.015-1.304l1.896-1.659c2.252-1.896 5.096-4.385 6.4-5.57 0.711-0.593 1.185-1.185 1.541-1.778 0.119-0.356 0.237-0.593 0.237-0.83s-0.119-0.474-0.356-0.593l-3.319-2.015 9.126-7.822 0.356 0.474c0.711 0.83 1.659 2.133 2.37 3.674 0.948 2.133 1.185 3.911 0.356 5.333-1.067 2.015-1.659 2.726-2.607 3.674-0.474 0.474-0.948 0.948-1.541 1.659-3.081 3.081-7.348 6.637-12.444 10.667-0.948 0.593-1.541 1.067-2.015 1.422-1.067 0.83-1.896 1.422-4.267 2.133-0.474 0.356-1.185 0.356-2.015 0.356zM4.385 28.089c1.067 0.593 2.252 1.067 3.2 1.422 2.252 0.711 4.148 0.948 5.452 0.474 2.252-0.711 2.844-1.185 3.911-2.015 0.474-0.356 1.067-0.83 2.015-1.422 5.096-4.030 9.126-7.585 12.207-10.548 0.593-0.711 1.067-1.185 1.541-1.659 0.948-0.948 1.422-1.541 2.489-3.437 0.593-1.067 0.356-2.489-0.474-4.267-0.474-1.067-1.185-2.133-1.778-2.963l-6.993 5.926 1.896 1.185c0.593 0.356 0.948 0.948 0.948 1.541 0 0.474-0.119 0.948-0.356 1.422-0.474 0.948-1.304 1.659-1.778 2.133-1.304 1.185-4.148 3.674-6.4 5.57l-1.896 1.659c-0.474 0.356-1.422 1.067-2.37 1.541-0.474 0.237-0.948 0.237-1.422 0.237-0.593 0-1.185-0.237-1.541-0.711v0 0l-1.659-2.015-6.993 5.926zM1.185 27.615l-0.356-0.356c-0.356-0.356-0.593-0.593-0.711-0.83l-0.119-0.356 0.119-0.356c0.119-0.237 0.237-0.356 0.593-0.711 0.119 0 0.356-0.119 0.474-0.356 0.237-0.119 0.356-0.356 0.593-0.474l5.689-4.741c0.593-0.474 0.948-0.711 1.304-0.711s0.711 0.119 1.185 0.474l0.593 0.474-9.363 7.941zM22.874 9.007l-0.356-0.237c-0.593-0.474-0.83-0.83-0.83-1.185 0-0.237 0.119-0.356 0.237-0.593 0.119-0.119 0.356-0.356 0.593-0.593v0l5.57-4.859c0.356-0.237 0.593-0.356 0.711-0.474 0.237-0.119 0.356-0.356 0.474-0.474 0.356-0.237 0.593-0.474 0.83-0.474 0.237-0.119 0.474-0.119 0.711 0s0.474 0.237 0.83 0.474l0.593 0.474-9.363 7.941z"></path>
</symbol>
</defs></svg>